<svg width="40" height="41" viewBox="0 0 40 41" fill="none" xmlns="http://www.w3.org/2000/svg">
<path d="M3.33333 10.1426H36.6667M16.6667 18.476V26.8093M23.3333 18.476V26.8093M6.66666 10.1426H33.3333L30.7 33.8426C30.6097 34.6583 30.2218 35.4119 29.6104 35.9593C28.9991 36.5067 28.2073 36.8094 27.3867 36.8093H12.6133C11.7927 36.8094 11.0009 36.5067 10.3896 35.9593C9.77822 35.4119 9.39026 34.6583 9.3 33.8426L6.66666 10.1426ZM12.2417 5.38764C12.5112 4.81592 12.9378 4.33263 13.4717 3.99416C14.0055 3.65568 14.6246 3.47596 15.2567 3.47597H24.7433C25.3757 3.47565 25.9951 3.65521 26.5293 3.99371C27.0634 4.33221 27.4903 4.81566 27.76 5.38764L30 10.1426H10L12.2417 5.38764V5.38764Z" stroke="#FF4545" stroke-width="2" stroke-linecap="round" stroke-linejoin="round"/>
</svg>
